<svg xmlns="http://www.w3.org/2000/svg" version="1.1" xmlns:xlink="http://www.w3.org/1999/xlink" xmlns:svgjs="http://svgjs.dev/svgjs" viewBox="0 0 800 800"><defs><filter id="uuunion-blur" x="-100%" y="-100%" width="400%" height="400%" color-interpolation-filters="sRGB">
        <feGaussianBlur in="SourceGraphic" stdDeviation="22 22" result="blur"></feGaussianBlur>
        <feDropShadow stdDeviation="48" in="blur" dx="39" dy="39" flood-color="#73b1f1" flood-opacity="0" x="0%" y="0%" width="100%" height="100%"></feDropShadow>
      </filter><filter id="uuunion-blur2" x="-100%" y="-100%" width="400%" height="400%" color-interpolation-filters="sRGB">
        <feGaussianBlur in="SourceGraphic" stdDeviation="22 22" result="blur"></feGaussianBlur>
        <feDropShadow stdDeviation="48" in="blur" dx="-39" dy="-39" flood-color="#73b1f1" flood-opacity="0" x="0%" y="0%" width="100%" height="100%"></feDropShadow>
      </filter><linearGradient gradientTransform="rotate(183, 0.5, 0.5)" x1="50%" y1="0%" x2="50%" y2="100%" id="uuunion-grad"><stop stop-color="#084b90" offset="10%"></stop><stop stop-color="#73b1f1" offset="90%"></stop></linearGradient><linearGradient gradientTransform="rotate(351, 0.5, 0.5)" x1="50%" y1="0%" x2="50%" y2="100%" id="uuunion-grad2"><stop stop-color="#084b90" offset="25%"></stop><stop stop-color="#73b1f1" offset="100%"></stop></linearGradient><linearGradient gradientTransform="rotate(62, 0.5, 0.5)" x1="50%" y1="0%" x2="50%" y2="100%" id="uuunion-grad3"><stop stop-color="#084b90" offset="0%"></stop><stop stop-color="#73b1f1" offset="75%"></stop></linearGradient></defs><path d="M-79.65 -78.94Q-64.72 -77.89 -49.8 -76.97 -34.88 -76.24 -19.96 -75.74 -5.03 -75.51 9.88 -75.56 24.8 -75.88 39.72 -76.46 54.65 -77.26 69.57 -78.23 84.49 -79.3 99.41 -80.43 114.34 -81.52 129.26 -82.52 144.18 -83.36 159.1 -84 174.03 -84.38 188.95 -84.49 203.87 -84.33 218.79 -83.89 233.72 -83.21 248.64 -82.33 263.56 -81.31 278.48 -80.2 293.41 -79.08 308.33 -78.02 323.25 -77.08 338.17 -76.32 353.1 -75.79 368.02 -75.53 382.94 -75.54 397.86 -75.82 412.78 -76.37 427.71 -77.14 442.63 -78.09 457.55 -79.16 472.47 -80.28 487.4 -81.38 502.32 -82.4 517.24 -83.26 532.16 -83.93 547.09 -84.35 562.01 -84.49 576.93 -84.36 591.85 -83.96 606.78 -83.31 621.7 -82.46 636.62 -81.45 651.54 -80.35 666.47 -79.23 681.39 -78.16 696.31 -77.2 711.23 -76.41 726.16 -75.85 741.08 -75.55 756 -75.52 770.92 -75.77 785.85 -76.28 800.77 -77.03 815.69 -77.96 830.61 -79.01 845.54 -80.13 860.46 -81.24 875.38 -82.27 837.26 -67.79 812.98 -53.31 810.39 -38.83 830.33 -24.35 866.35 -9.87 906.78 4.6 938.55 19.08 951.36 33.55 941.07 48.03 911.01 62.51 870.91 76.99 833.75 91.47 811.56 105.95 811.53 120.43 833.66 134.91 870.79 149.39 910.9 163.87 941 178.35 951.36 192.83 938.62 207.3 906.9 221.78 866.47 236.26 830.42 250.74 810.42 265.22 812.94 279.7 837.17 294.18 875.26 308.66 914.89 323.14 943.22 337.62 951.08 352.1 935.94 366.57 902.68 381.05 862.08 395.53 827.28 410.01 809.55 424.49 814.61 438.97 840.85 453.45 879.75 467.93 918.74 482.41 945.18 496.89 950.52 511.37 933.03 525.84 898.38 540.32 857.77 554.8 824.36 569.28 808.95 583.76 816.55 598.24 844.68 612.72 884.25 627.2 922.43 641.68 946.88 656.16 949.68 670.64 929.92 685.12 894 699.59 853.54 714.07 821.65 728.55 808.65 743.03 818.74 757.51 848.66 771.99 888.72 786.47 925.96 800.95 948.32 815.43 948.56 829.91 926.61 844.39 910.83 860.55 895.04 877.92 879.26 895.41 863.48 911.95 847.69 926.51 831.91 938.17 816.13 946.21 800.34 950.14 784.56 949.71 768.78 944.94 752.99 936.13 737.21 923.83 721.43 908.81 705.64 892 689.86 874.44 674.07 857.22 658.29 841.42 642.51 828.02 626.72 817.85 610.94 811.55 595.16 809.5 579.37 811.83 563.59 818.4 547.81 828.8 532.02 842.39 516.24 858.31 500.46 875.58 484.67 893.12 468.89 909.85 453.11 924.72 437.32 936.82 421.54 945.37 405.76 949.87 389.97 950.02 374.19 945.81 358.41 937.52 342.62 925.64 326.84 910.93 311.06 894.3 295.27 876.77 279.49 859.45 263.71 843.4 247.92 829.63 232.14 818.99 216.35 812.15 200.57 809.52 184.79 811.27 169 817.3 153.22 827.22 137.44 840.43 121.65 856.09 105.87 873.25 90.09 890.82 74.3 907.72 58.52 922.89 42.74 935.4 26.95 944.46 11.17 949.52 -4.6 950.25 -20.39 946.61 -36.17 938.84 -51.95 927.4 -67.74 913.02 -83.52 896.58 -85.18 881.34 -85.16 866.09 -83.47 850.85 -80.66 835.61 -77.62 820.37 -75.36 805.12 -74.6 789.88 -75.58 774.64 -77.99 759.4 -81.05 744.15 -83.77 728.91 -85.27 713.67 -85.05 698.43 -83.2 683.18 -80.32 667.94 -77.32 652.7 -75.2 637.46 -74.62 622.21 -75.79 606.97 -78.31 591.73 -81.39 576.48 -84.01 561.24 -85.33 546 -84.92 530.76 -82.93 515.51 -79.98 500.27 -77.03 485.03 -75.05 469.79 -74.67 454.54 -76.01 439.3 -78.64 424.06 -81.71 408.82 -84.23 393.57 -85.37 378.33 -84.78 363.09 -82.63 347.85 -79.64 332.6 -76.76 317.36 -74.92 302.12 -74.73 286.88 -76.25 271.63 -78.97 256.39 -82.03 241.15 -84.43 225.91 -85.39 210.66 -84.61 195.42 -82.33 180.18 -79.3 164.93 -76.49 149.69 -74.82 134.45 -74.82 119.21 -76.5 103.96 -79.31 88.72 -82.34 73.48 -84.61 58.24 -85.39 42.99 -84.42 27.75 -82.02 12.51 -78.96 -2.72 -76.24 -17.97 -74.73 -33.21 -74.93 -48.45 -76.76 -63.69 -79.65 -78.94" fill="url(#uuunion-grad)"></path><path d="M-79.65 -78.94Q-76.76 -63.69 -74.93 -48.45 -74.73 -33.21 -76.24 -17.97 -78.96 -2.72 -82.02 12.51 -84.42 27.75 -85.39 42.99 -84.61 58.24 -82.34 73.48 -79.31 88.72 -76.5 103.96 -74.82 119.21 -74.82 134.45 -76.49 149.69 -79.3 164.93 -82.33 180.18 -84.61 195.42 -85.39 210.66 -84.43 225.91 -82.03 241.15 -78.97 256.39 -76.25 271.63 -74.73 286.88 -74.92 302.12 -76.76 317.36 -79.64 332.6 -82.63 347.85 -84.78 363.09 -85.37 378.33 -84.23 393.57 -81.71 408.82 -71.46 414.74 -61.2 420.26 -50.95 425.21 -40.69 429.47 -30.44 432.9 -20.19 435.43 -0.96 437.35 2.35 437.47 15.61 429.74 29.19 420.51 42.98 409.93 56.8 398.22 70.47 385.65 83.81 372.51 96.65 359.1 108.87 345.75 120.38 332.76 131.16 320.41 141.24 308.95 150.74 298.57 159.81 289.44 168.68 281.63 177.59 275.19 186.83 270.09 196.66 266.23 207.35 263.48 219.1 261.66 232.07 260.56 246.35 259.92 261.93 259.49 278.7 259.02 296.48 258.24 315 256.95 333.93 254.93 352.86 252.03 371.38 248.13 389.08 243.16 405.56 237.1 420.5 229.98 433.64 221.87 444.82 212.89 454.01 203.18 461.3 192.93 466.91 182.33 471.16 171.58 474.5 160.88 477.45 150.43 480.55 140.4 484.41 130.94 489.57 122.17 496.55 114.16 505.77 106.97 517.52 100.6 531.96 95.01 549.09 90.15 568.73 85.91 590.56 82.19 614.1 78.83 638.76 75.7 663.84 72.64 688.61 69.51 712.32 66.16 734.24 62.49 753.76 58.39 770.37 53.8 783.71 48.65 798.58 36.43 804.19 22.69 802.76 15.09 800 7.2 759.47 -11.16 736.63 -29.53 741.42 -47.89 771.76 -66.26 814.42 -84.63 850.78 -102.99 864.99 -121.36 850.85 -139.72 835.01 -139.67 819.17 -139.63 803.34 -139.62 787.5 -139.63 771.66 -139.66 755.82 -139.71 739.98 -139.78 724.14 -139.87 708.3 -139.96 692.46 -140.05 676.62 -140.14 660.78 -140.22 644.94 -140.29 629.1 -140.34 613.26 -140.36 597.42 -140.37 581.59 -140.35 565.75 -140.31 549.91 -140.25 534.07 -140.18 518.23 -140.09 502.39 -140 486.55 -139.91 470.71 -139.82 454.87 -139.74 439.03 -139.68 423.19 -139.64 407.35 -139.62 391.51 -139.62 375.67 -139.65 359.83 -139.7 344 -139.76 328.16 -139.84 312.32 -139.93 296.48 -140.02 280.64 -140.11 264.8 -140.2 248.96 -140.27 233.12 -140.32 217.28 -140.36 201.44 -140.37 185.6 -140.36 169.76 -140.33 153.92 -140.27 138.08 -140.2 122.25 -140.12 106.41 -140.03 90.57 -139.93 74.73 -139.85 58.89 -139.77 43.05 -139.7 27.21 -139.65 11.37 -139.63 -4.46 -139.62 -20.3 -139.64 -36.14 -139.68 -51.98 -139.74 -67.82 -139.82 -83.66 -139.9 -99.49 -140 -115.33 -140.09 -131.17 -140.17 -142.98 -127.59 -124.4 -110.9 -113.22 -103.15 -101.87 -95.24 -90.61 -87.16 -79.65 -78.94" fill="url(#uuunion-grad2)" filter="url(#uuunion-blur)"></path><path d="M820.65 427Q830.9 422.3 841.16 416.99 851.41 411.21 861.67 405.12 871.92 398.89 882.17 392.69 892.43 386.69 902.68 381.05 862.08 395.53 827.28 410.01 809.55 424.49 814.61 438.97 840.85 453.45 879.75 467.93 918.74 482.41 945.18 496.89 950.52 511.37 933.03 525.84 898.38 540.32 857.77 554.8 824.36 569.28 808.95 583.76 816.55 598.24 844.68 612.72 884.25 627.2 922.43 641.68 946.88 656.16 949.68 670.64 929.92 685.12 894 699.59 853.54 714.07 821.65 728.55 808.65 743.03 818.74 757.51 848.66 771.99 888.72 786.47 925.96 800.95 948.32 815.43 948.56 829.91 926.61 844.39 912.13 859.16 897.64 875.02 883.16 891.14 868.67 906.68 854.19 920.82 839.7 932.82 825.22 942.06 810.73 948.04 796.25 950.45 781.76 949.17 767.28 944.27 752.79 936 738.31 924.79 723.83 911.24 709.34 896.05 694.86 880.01 680.37 863.98 665.89 848.79 651.4 835.23 636.92 824.01 622.43 815.74 607.95 810.82 593.46 809.54 578.98 811.94 564.49 817.92 550.01 827.14 535.53 839.14 521.04 853.27 506.56 868.81 492.07 884.93 477.59 900.8 463.1 915.57 448.62 928.48 434.13 938.85 419.65 946.13 405.16 949.95 390.68 950.1 376.2 946.58 361.71 939.57 347.23 929.44 332.74 916.71 318.26 902.06 303.77 886.26 289.29 870.12 274.8 854.5 260.32 840.22 245.83 828.03 231.35 818.56 216.86 812.3 202.38 809.6 187.9 810.58 173.41 815.2 158.93 823.22 144.44 834.21 129.96 847.6 115.47 862.69 100.99 878.69 86.5 894.75 72.02 910.04 57.53 923.76 43.05 935.18 28.56 943.71 6.95 944.35 -0.08 929.11 -0.11 918.42 -0.28 907.74 -0.55 897.05 -0.88 886.36 -1.15 870.33 -0.6 865 10.94 856.92 22.29 846.15 33.58 832.91 45 817.55 56.73 800.47 68.91 782.18 81.69 763.2 95.12 744.1 109.24 725.43 123.99 707.73 139.28 691.46 154.93 677.05 170.74 664.82 186.46 655 201.83 647.7 216.59 642.94 230.49 640.61 243.35 640.51 255.03 642.34 265.47 645.72 274.71 650.22 282.84 655.35 296.55 665.09 309.45 672.35 316.39 673.49 324.23 672.69 333.33 669.76 344 664.58 356.45 657.13 370.8 647.52 387.06 635.92 405.09 622.6 424.66 607.88 445.41 592.16 466.9 575.87 488.61 559.45 509.98 543.33 530.45 527.94 549.49 513.67 566.63 500.83 581.49 489.69 593.83 480.43 620.16 468.18 626.99 473.01 633.51 474.71 643.02 475.45 655.79 474.95 671.92 472.99 691.31 469.41 713.65 464.13 738.48 457.14 765.12 448.52 792.8 438.41 820.65 427 820.65 427 820.65 427" fill="url(#uuunion-grad3)" filter="url(#uuunion-blur2)"></path></svg>