<svg id="visual" viewBox="0 0 900 600" width="900" height="600" xmlns="http://www.w3.org/2000/svg" xmlns:xlink="http://www.w3.org/1999/xlink" version="1.1"><rect x="0" y="0" width="900" height="600" fill="#f5f5f5"></rect><path d="M0 367L53 350L106 348L159 332L212 320L265 318L318 360L371 329L424 332L476 314L529 340L582 315L635 319L688 345L741 322L794 326L847 359L900 317L900 601L847 601L794 601L741 601L688 601L635 601L582 601L529 601L476 601L424 601L371 601L318 601L265 601L212 601L159 601L106 601L53 601L0 601Z" fill="#f5f5f5"></path><path d="M0 378L53 416L106 341L159 362L212 353L265 336L318 334L371 379L424 356L476 371L529 325L582 387L635 387L688 365L741 381L794 330L847 394L900 357L900 601L847 601L794 601L741 601L688 601L635 601L582 601L529 601L476 601L424 601L371 601L318 601L265 601L212 601L159 601L106 601L53 601L0 601Z" fill="#eeeff3"></path><path d="M0 413L53 413L106 350L159 427L212 393L265 436L318 377L371 365L424 426L476 430L529 388L582 402L635 432L688 415L741 367L794 430L847 364L900 371L900 601L847 601L794 601L741 601L688 601L635 601L582 601L529 601L476 601L424 601L371 601L318 601L265 601L212 601L159 601L106 601L53 601L0 601Z" fill="#e7eaf2"></path><path d="M0 422L53 379L106 414L159 408L212 409L265 391L318 391L371 444L424 433L476 404L529 390L582 412L635 442L688 441L741 439L794 427L847 404L900 439L900 601L847 601L794 601L741 601L688 601L635 601L582 601L529 601L476 601L424 601L371 601L318 601L265 601L212 601L159 601L106 601L53 601L0 601Z" fill="#e0e4f0"></path><path d="M0 465L53 424L106 423L159 435L212 457L265 422L318 437L371 408L424 443L476 446L529 448L582 467L635 402L688 467L741 426L794 448L847 405L900 405L900 601L847 601L794 601L741 601L688 601L635 601L582 601L529 601L476 601L424 601L371 601L318 601L265 601L212 601L159 601L106 601L53 601L0 601Z" fill="#d9deee"></path><path d="M0 470L53 450L106 482L159 442L212 434L265 465L318 453L371 456L424 429L476 444L529 435L582 420L635 450L688 432L741 429L794 423L847 465L900 447L900 601L847 601L794 601L741 601L688 601L635 601L582 601L529 601L476 601L424 601L371 601L318 601L265 601L212 601L159 601L106 601L53 601L0 601Z" fill="#d2d9ed"></path><path d="M0 480L53 497L106 482L159 477L212 491L265 468L318 494L371 477L424 452L476 486L529 451L582 492L635 493L688 474L741 470L794 488L847 472L900 451L900 601L847 601L794 601L741 601L688 601L635 601L582 601L529 601L476 601L424 601L371 601L318 601L265 601L212 601L159 601L106 601L53 601L0 601Z" fill="#cbd3eb"></path><path d="M0 489L53 477L106 483L159 507L212 479L265 500L318 498L371 503L424 471L476 503L529 484L582 495L635 495L688 500L741 474L794 512L847 499L900 479L900 601L847 601L794 601L741 601L688 601L635 601L582 601L529 601L476 601L424 601L371 601L318 601L265 601L212 601L159 601L106 601L53 601L0 601Z" fill="#c4cde9"></path><path d="M0 498L53 504L106 508L159 492L212 527L265 521L318 519L371 495L424 517L476 489L529 505L582 491L635 517L688 515L741 521L794 523L847 522L900 490L900 601L847 601L794 601L741 601L688 601L635 601L582 601L529 601L476 601L424 601L371 601L318 601L265 601L212 601L159 601L106 601L53 601L0 601Z" fill="#bdc8e8"></path><path d="M0 516L53 536L106 528L159 538L212 519L265 545L318 523L371 519L424 534L476 522L529 539L582 511L635 523L688 527L741 523L794 532L847 542L900 519L900 601L847 601L794 601L741 601L688 601L635 601L582 601L529 601L476 601L424 601L371 601L318 601L265 601L212 601L159 601L106 601L53 601L0 601Z" fill="#b6c2e6"></path><path d="M0 544L53 560L106 557L159 548L212 545L265 547L318 549L371 551L424 555L476 554L529 559L582 557L635 558L688 539L741 535L794 539L847 555L900 560L900 601L847 601L794 601L741 601L688 601L635 601L582 601L529 601L476 601L424 601L371 601L318 601L265 601L212 601L159 601L106 601L53 601L0 601Z" fill="#afbde4"></path><path d="M0 574L53 563L106 563L159 568L212 565L265 559L318 566L371 559L424 575L476 560L529 569L582 570L635 568L688 559L741 564L794 564L847 561L900 559L900 601L847 601L794 601L741 601L688 601L635 601L582 601L529 601L476 601L424 601L371 601L318 601L265 601L212 601L159 601L106 601L53 601L0 601Z" fill="#a8b7e2"></path></svg>