<?xml version="1.0" encoding="utf-8"?>
<!-- Generator: Adobe Illustrator 25.0.1, SVG Export Plug-In . SVG Version: 6.00 Build 0)  -->
<svg version="1.1" id="visual" xmlns="http://www.w3.org/2000/svg" xmlns:xlink="http://www.w3.org/1999/xlink" x="0px" y="0px"
	 viewBox="0 0 900 2126" style="enable-background:new 0 0 900 2126;" xml:space="preserve">
<style type="text/css">
	.st0{opacity:4.000000e-02;enable-background:new    ;}
</style>
<path class="st0" d="M0,1.1l21.5,5c21.5,5,64.5,15,107.3,16.3c42.9,1.4,85.5-6,128.4-6.3c42.8-0.3,85.8,6.3,128.6,11
	c42.9,4.7,85.5,7.3,128.4,10c42.8,2.7,85.8,5.3,128.6,2.8c42.9-2.5,85.5-10.1,128.4-13.5c42.8-3.3,85.8-2.3,107.3-1.8l21.5,0.5V2147
	h-21.5c-21.5,0-64.5,0-107.3,0c-42.9,0-85.5,0-128.4,0c-42.8,0-85.8,0-128.6,0c-42.9,0-85.5,0-128.4,0c-42.8,0-85.8,0-128.6,0
	c-42.9,0-85.5,0-128.4,0c-42.8,0-85.8,0-107.3,0H0V1.1z"/>
<path class="st0" d="M0,79.1l21.5-4.2C43,70.8,86,62.4,128.8,59.6c42.9-2.8,85.5-0.2,128.4,0.8c42.8,1,85.8,0.4,128.6-2.1
	c42.9-2.5,85.5-6.9,128.4-8.5c42.8-1.7,85.8-0.7,128.6,2.5c42.9,3.1,85.5,8.5,128.4,10.5c42.8,2,85.8,0.6,107.3,0l21.5-0.7V2126
	h-21.5c-21.5,0-64.5,0-107.3,0c-42.9,0-85.5,0-128.4,0c-42.8,0-85.8,0-128.6,0c-42.9,0-85.5,0-128.4,0c-42.8,0-85.8,0-128.6,0
	c-42.9,0-85.5,0-128.4,0c-42.8,0-85.8,0-107.3,0H0V79.1z"/>
</svg>
