<svg id="visual" viewBox="0 0 900 600" width="900" height="600" xmlns="http://www.w3.org/2000/svg" xmlns:xlink="http://www.w3.org/1999/xlink" version="1.1"><rect x="0" y="0" width="900" height="600" fill="#e9e9ef"></rect><g transform="translate(493.17355608850426 346.1481761891202)"><path d="M145.2 -245.8C195 -194 246.7 -165.1 265.3 -121.9C284 -78.6 269.7 -20.9 276.3 50.6C282.9 122.1 310.3 207.4 276.7 231.5C243 255.6 148.1 218.5 76.3 222.6C4.4 226.8 -44.4 272.2 -103.6 285.5C-162.7 298.8 -232.1 280.1 -290.8 237.8C-349.5 195.5 -397.5 129.8 -372.8 74.6C-348.1 19.3 -250.8 -25.4 -206.1 -82.1C-161.4 -138.7 -169.4 -207.3 -143.8 -270.1C-118.2 -333 -59.1 -390 -5.7 -381.1C47.8 -372.3 95.5 -297.6 145.2 -245.8" fill="#f5f5f5"></path></g></svg>