<?xml version="1.0" encoding="utf-8"?>
<!-- Generator: Adobe Illustrator 25.0.1, SVG Export Plug-In . SVG Version: 6.00 Build 0)  -->
<svg version="1.1" id="visual" xmlns="http://www.w3.org/2000/svg" xmlns:xlink="http://www.w3.org/1999/xlink" x="0px" y="0px"
	 viewBox="0 0 900 2126" style="enable-background:new 0 0 900 2126;" xml:space="preserve">
<style type="text/css">
	.st0{opacity:4.000000e-02;enable-background:new    ;}
</style>
<path class="st0" d="M900,70.1l-21.5-3.8C857,62.4,814,54.8,771.2,54.8c-42.9,0-85.5,7.6-128.4,5.5C600,58.1,557,46.1,514.2,40.6
	c-42.9-5.5-85.5-4.5-128.4,1.7C343,48.4,300,59.8,257.2,63.8c-42.9,4-85.5,0.6-128.4-6.5C86,50.1,43,39.1,21.5,33.6L0,28.1v-86h21.5
	c21.5,0,64.5,0,107.3,0c42.9,0,85.5,0,128.4,0c42.8,0,85.8,0,128.6,0c42.9,0,85.5,0,128.4,0c42.8,0,85.8,0,128.6,0
	c42.9,0,85.5,0,128.4,0c42.8,0,85.8,0,107.3,0H900V70.1z"/>
<path class="st0" d="M900,11.1l-21.5,5.5C857,22.1,814,33.1,771.2,37.9c-42.9,4.9-85.5,3.5-128.4,1.5c-42.8-2-85.8-4.6-128.6-7.5
	c-42.9-2.8-85.5-5.8-128.4-9c-42.8-3.1-85.8-6.5-128.6-6.8c-42.9-0.3-85.5,2.3-128.4,2C86,17.8,43,14.4,21.5,12.8L0,11.1v-35h21.5
	c21.5,0,64.5,0,107.3,0c42.9,0,85.5,0,128.4,0c42.8,0,85.8,0,128.6,0c42.9,0,85.5,0,128.4,0c42.8,0,85.8,0,128.6,0
	c42.9,0,85.5,0,128.4,0c42.8,0,85.8,0,107.3,0H900V11.1z"/>
</svg>
