<?xml version="1.0" encoding="utf-8"?>
<!-- Generator: Adobe Illustrator 25.0.1, SVG Export Plug-In . SVG Version: 6.00 Build 0)  -->
<svg version="1.1" id="visual" xmlns="http://www.w3.org/2000/svg" xmlns:xlink="http://www.w3.org/1999/xlink" x="0px" y="0px"
	 viewBox="0 0 900 600" style="enable-background:new 0 0 900 600;" xml:space="preserve">
<style type="text/css">
	.st0{fill:#222222;}
	.st1{fill:#2F2F2F;}
</style>
<rect y="-511.5" class="st0" width="900" height="1111.5"/>
<path class="st1" d="M0,389.4l18.8-4.2c18.9-4.1,56.5-12.5,94-3s74.9,36.9,112.4,61.7s75.1,47.2,112.6,36.3
	c37.5-10.8,74.9-54.8,112.4-67.1c37.5-12.4,75.1,7,112.6,29.3s74.9,47.7,112.4,48.3c37.5,0.7,75.1-23.3,112.6-23
	c37.5,0.4,74.9,25,93.5,37.4l18.7,12.3v-879.5h-18.7c-18.6,0-56,0-93.5,0s-75.1,0-112.6,0s-74.9,0-112.4,0s-75.1,0-112.6,0
	s-74.9,0-112.4,0s-75.1,0-112.6,0s-74.9,0-112.4,0s-75.1,0-94,0H0V389.4z"/>
</svg>
