<svg id="Layer_1" data-name="Layer 1" xmlns="http://www.w3.org/2000/svg" viewBox="0 0 666.9741 230.3485"><defs><style>.cls-1{fill:#f9c215;}.cls-2{fill:#084b90;stroke:#084b90;}.cls-2,.cls-3{stroke-miterlimit:10;stroke-width:2px;}.cls-3{fill:#fff;stroke:#fff;}</style></defs><polygon class="cls-1" points="333.463 0 246.21 230.348 421.88 196.611 333.463 0"/><path class="cls-2" d="M101.7571,231.6645Q98.1211,247.5059,87.9,256.0087a38.65,38.65,0,0,1-24.9147,8.4273q-13.0161-.3126-21.717-6.5647-8.8526-6.0177-12.8624-13.911-1.2134-2.5789-2.1948-4.9235a32.7834,32.7834,0,0,1-1.5135-6.0958q-1.1371-6.8754-1.1345-26.4152,0-19.8505,1.1358-26.5715a32.1019,32.1019,0,0,1,3.7083-10.8631q4.0112-7.8933,12.8689-14.0672Q49.98,148.7718,63,148.6155q15.9723.1583,26.04,9.7546a43.3083,43.3083,0,0,1,12.7166,23.9561h-17.74a25.2254,25.2254,0,0,0-7.43-11.7475,21.47,21.47,0,0,0-13.6466-4.7777,22.583,22.583,0,0,0-10.16,2.4279,21.3055,21.3055,0,0,0-6.975,5.8744,19.1683,19.1683,0,0,0-4.3218,9.4759q-1.2113,6.1095-1.2126,22.9466t1.2139,22.79a19.2781,19.2781,0,0,0,4.3231,9.6321,19.7165,19.7165,0,0,0,6.9789,5.7181,19.1768,19.1768,0,0,0,10.1636,2.5842q14.1065,0,21.0853-15.586Z" transform="translate(-22.5626 -84.6173)"/><path class="cls-2" d="M112.5771,206.5258q0-19.8915,1.1345-26.6262a32.2068,32.2068,0,0,1,3.7083-10.8865q4.0092-7.8621,12.8612-14.0139,8.7021-6.2267,21.7157-6.3837,13.1665.1583,21.9423,6.4085,8.7,6.1739,12.56,14.0672a26.7141,26.7141,0,0,1,3.8568,10.8631q.9809,6.723.9821,26.5715,0,19.5378-.9821,26.4152a26.9043,26.9043,0,0,1-3.8594,11.0193q-3.8587,7.8954-12.56,13.911-8.7765,6.2541-21.9411,6.5647-13.0142-.3126-21.7143-6.5647-8.8527-6.0177-12.8625-13.911-1.2113-2.5789-2.1934-4.9235a32.7827,32.7827,0,0,1-1.5136-6.0958Q112.5746,226.0656,112.5771,206.5258Zm16.7088,0q0,16.8376,1.2127,22.79a19.2944,19.2944,0,0,0,4.3231,9.6321,19.7252,19.7252,0,0,0,6.975,5.7181,19.17,19.17,0,0,0,10.161,2.5842,20.1334,20.1334,0,0,0,10.3876-2.5842,18.671,18.671,0,0,0,6.6728-5.7181,20.3477,20.3477,0,0,0,4.4742-9.6321q1.1352-5.9513,1.1371-22.79,0-16.8378-1.1371-22.9466a23.9166,23.9166,0,0,0-11.147-15.35,23.771,23.771,0,0,0-10.3876-2.4279,22.5884,22.5884,0,0,0-10.161,2.4279,21.3055,21.3055,0,0,0-6.975,5.8744,19.164,19.164,0,0,0-4.3231,9.4746Q129.2872,189.6894,129.2859,206.5258Z" transform="translate(-22.5626 -84.6173)"/><path class="cls-2" d="M213.94,149.5533h15.7515l49.983,81.0028h.3035V149.5533h16.7088V263.4982H280.8581l-49.9062-81.0027h-.3035v81.0027H213.94Z" transform="translate(-22.5626 -84.6173)"/><path class="cls-3" d="M379.9881,238.013H338.13l-8.4769,25.4852H311.9416l40.1165-113.9449h14.0034l40.1152,113.9449H388.5405ZM375.22,222.711,359.248,172.862h-.3022l-15.9716,49.849Z" transform="translate(-22.5626 -84.6173)"/><path class="cls-2" d="M421.0411,149.5533h40.007a62.205,62.205,0,0,1,12.5772,1.25,33.5232,33.5232,0,0,1,12.275,6.72,27.2426,27.2426,0,0,1,8.4677,10.94,36.2787,36.2787,0,0,1,3.4035,16.2542,35.2071,35.2071,0,0,1-8.64,23.0521q-8.8683,10.9411-25.919,11.2525H437.75v44.476H421.0411Zm16.7088,53.229h24.8039q9.3294-.1583,14.0321-5.9681a19.7543,19.7543,0,0,0,4.4755-12.5616,22.8925,22.8925,0,0,0-1.8209-9.6582,14.2181,14.2181,0,0,0-5.3091-5.5735,20.5158,20.5158,0,0,0-11.9845-3.22H437.75Z" transform="translate(-22.5626 -84.6173)"/><path class="cls-2" d="M515.9157,149.5533h43.1214q13.7937,0,22.51,7.5026,10.488,8.5185,10.9412,24.3051-.3048,23.211-21.3119,31.5732l25.5451,50.564H576.8686L554.025,214.802h-21.4v48.6962H515.9157ZM532.6245,199.5h25.3471q9.41-.1563,14.1168-5.6426a17.9651,17.9651,0,0,0,4.6291-12.5381q-.1524-8.9307-5.5409-12.9288-4.2475-3.5266-12.2932-3.5273H532.6245Z" transform="translate(-22.5626 -84.6173)"/><path class="cls-2" d="M609.7756,206.5258q0-19.8915,1.1332-26.6262a32.2059,32.2059,0,0,1,3.71-10.8865q4.0092-7.8621,12.8611-14.0139,8.7022-6.2267,21.7157-6.3837,13.1646.1583,21.9424,6.4085,8.7021,6.1739,12.5615,14.0672a26.7522,26.7522,0,0,1,3.8555,10.8631q.9808,6.723.9821,26.5715,0,19.5378-.9821,26.4152a26.9423,26.9423,0,0,1-3.8581,11.0193q-3.8607,7.8954-12.5615,13.911-8.7765,6.2541-21.94,6.5647-13.0161-.3126-21.7157-6.5647-8.8545-6.0177-12.8637-13.911-1.2075-2.5789-2.1908-4.9235a32.7643,32.7643,0,0,1-1.5162-6.0958Q609.7757,226.0656,609.7756,206.5258Zm16.7088,0q0,16.8376,1.214,22.79a19.3044,19.3044,0,0,0,4.3217,9.6321,19.7083,19.7083,0,0,0,6.9764,5.7181,19.1592,19.1592,0,0,0,10.16,2.5842,20.1382,20.1382,0,0,0,10.3889-2.5842,18.6555,18.6555,0,0,0,6.6715-5.7181,20.3352,20.3352,0,0,0,4.4729-9.6321q1.1372-5.9513,1.1384-22.79T670.69,183.5792a23.9139,23.9139,0,0,0-11.1444-15.35,23.7769,23.7769,0,0,0-10.3889-2.4279,22.5741,22.5741,0,0,0-10.16,2.4279,21.2853,21.2853,0,0,0-6.9764,5.8744,19.174,19.174,0,0,0-4.3217,9.4746Q626.4831,189.6894,626.4844,206.5258Z" transform="translate(-22.5626 -84.6173)"/></svg>