<svg xmlns="http://www.w3.org/2000/svg" version="1.1" xmlns:xlink="http://www.w3.org/1999/xlink" xmlns:svgjs="http://svgjs.dev/svgjs" viewBox="0 0 800 800"><defs><filter id="uuunion-blur" x="-100%" y="-100%" width="400%" height="400%" color-interpolation-filters="sRGB">
        <feGaussianBlur in="SourceGraphic" stdDeviation="16 19" result="blur"></feGaussianBlur>
        <feDropShadow stdDeviation="72.61538461538461" in="blur" dx="59" dy="59" flood-color="#ff7b0a" flood-opacity="0.25" x="0%" y="0%" width="100%" height="100%"></feDropShadow>
      </filter><filter id="uuunion-blur2" x="-100%" y="-100%" width="400%" height="400%" color-interpolation-filters="sRGB">
        <feGaussianBlur in="SourceGraphic" stdDeviation="16 19" result="blur"></feGaussianBlur>
        <feDropShadow stdDeviation="72.61538461538461" in="blur" dx="-59" dy="-59" flood-color="#ff7b0a" flood-opacity="0.25" x="0%" y="0%" width="100%" height="100%"></feDropShadow>
      </filter><linearGradient gradientTransform="rotate(175, 0.5, 0.5)" x1="50%" y1="0%" x2="50%" y2="100%" id="uuunion-grad"><stop stop-color="#ffe439" offset="10%"></stop><stop stop-color="#ff7b0a" offset="90%"></stop></linearGradient><linearGradient gradientTransform="rotate(132, 0.5, 0.5)" x1="50%" y1="0%" x2="50%" y2="100%" id="uuunion-grad2"><stop stop-color="#ffe439" offset="25%"></stop><stop stop-color="#ff7b0a" offset="100%"></stop></linearGradient><linearGradient gradientTransform="rotate(97, 0.5, 0.5)" x1="50%" y1="0%" x2="50%" y2="100%" id="uuunion-grad3"><stop stop-color="#ffe439" offset="0%"></stop><stop stop-color="#ff7b0a" offset="75%"></stop></linearGradient></defs><path d="M-77.09 -78.85Q-62.81 -77.12 -48.54 -75.58 -34.27 -74.36 -20 -73.52 -5.72 -73.12 8.54 -73.2 22.81 -73.75 37.09 -74.73 51.36 -76.07 65.63 -77.68 79.9 -79.45 94.18 -81.25 108.45 -82.98 122.72 -84.49 137 -85.7 151.27 -86.51 165.54 -86.88 179.81 -86.77 194.09 -86.19 208.36 -85.19 222.63 -83.83 236.91 -82.21 251.18 -80.43 265.45 -78.62 279.72 -76.91 294 -75.41 308.27 -74.23 322.54 -73.44 336.82 -73.11 351.09 -73.24 365.36 -73.85 379.63 -74.87 393.91 -76.25 408.18 -77.89 422.45 -79.67 436.73 -81.48 451 -83.18 465.27 -84.66 479.54 -85.82 493.82 -86.58 508.09 -86.89 522.36 -86.72 536.64 -86.09 550.91 -85.04 565.18 -83.64 579.45 -81.99 593.73 -80.21 608 -78.41 622.27 -76.71 636.55 -75.25 650.82 -74.11 665.09 -73.37 679.36 -73.1 693.64 -73.29 707.91 -73.95 722.18 -75.03 736.46 -76.44 750.73 -78.1 765 -79.9 779.27 -81.69 793.55 -83.38 807.82 -84.82 822.09 -85.94 836.36 -86.65 835.19 -72.21 839.18 -57.77 847.86 -43.33 860.24 -28.89 874.89 -14.45 890.13 -0.01 904.21 14.42 915.5 28.86 922.7 43.3 924.99 57.74 922.09 72.18 914.36 86.62 902.66 101.06 888.36 115.5 873.1 129.94 858.63 144.38 846.62 158.82 838.45 173.26 835.06 187.7 836.84 202.14 843.59 216.58 854.54 231.02 868.41 245.46 883.61 259.9 898.4 274.34 911.07 288.78 920.16 303.22 924.63 317.66 923.97 332.1 918.24 346.54 908.11 360.97 894.74 375.41 879.68 389.85 864.65 404.29 851.39 418.73 841.42 433.17 835.89 447.61 835.44 462.05 840.12 476.49 849.38 490.93 862.17 505.37 877.01 519.81 892.19 534.25 905.97 548.69 916.76 563.13 923.32 577.57 924.89 592.01 921.3 606.45 912.95 620.89 900.8 635.33 886.26 649.77 871.01 664.21 856.78 678.65 845.23 693.09 837.68 707.53 835 721.97 837.49 736.41 844.89 750.85 856.32 765.29 870.47 779.73 885.73 794.17 900.32 808.61 912.57 823.05 921.08 837.49 905.39 842 889.71 849.13 874.02 858.39 858.34 869.14 842.65 880.63 826.97 892.08 811.28 902.69 795.6 911.75 779.92 918.62 764.23 922.82 748.55 924.08 732.86 922.31 717.18 917.62 701.49 910.34 685.81 900.97 670.12 890.16 654.44 878.64 638.75 867.22 623.07 856.68 607.38 847.75 591.7 841.03 576.01 837 560.33 835.93 544.64 837.89 528.96 842.75 513.28 850.18 497.59 859.66 481.91 870.53 466.22 882.07 450.54 893.45 434.85 903.91 419.17 912.73 403.48 919.29 387.8 923.14 372.11 924.03 356.43 921.88 340.74 916.85 325.06 909.28 309.37 899.69 293.69 888.75 278 877.21 262.32 865.85 246.64 855.47 230.95 846.78 215.27 840.38 199.58 836.7 183.9 836.01 168.21 838.34 152.53 843.54 136.84 851.25 121.16 860.94 105.47 871.94 89.79 883.5 74.1 894.82 58.42 905.11 42.73 913.67 27.05 919.92 11.36 923.42 -4.31 923.93 -20 921.41 -35.68 916.04 -51.36 908.19 -67.05 898.4 -82.73 887.34 -82.17 872.24 -81.35 857.14 -80.38 842.05 -79.36 826.95 -78.42 811.85 -77.65 796.76 -77.16 781.66 -77 766.56 -77.17 751.47 -77.68 736.37 -78.45 721.27 -79.4 706.18 -80.41 691.08 -81.38 675.98 -82.19 660.89 -82.75 645.79 -82.99 630.69 -82.88 615.6 -82.45 600.5 -81.73 585.4 -80.81 570.31 -79.8 555.21 -78.81 540.11 -77.95 525.02 -77.34 509.92 -77.02 494.82 -77.05 479.72 -77.42 464.63 -78.09 449.53 -78.97 434.43 -79.97 419.34 -80.98 404.24 -81.87 389.14 -82.54 374.05 -82.93 358.95 -82.97 343.85 -82.67 328.76 -82.07 313.66 -81.22 298.56 -80.24 283.47 -79.22 268.37 -78.3 253.27 -77.57 238.18 -77.12 223.08 -77 207.98 -77.23 192.89 -77.77 177.79 -78.57 162.69 -79.54 147.6 -80.55 132.5 -81.51 117.4 -82.29 102.31 -82.8 87.21 -82.99 72.11 -82.84 57.01 -82.36 41.92 -81.61 26.82 -80.67 11.72 -79.65 -3.36 -78.68 -18.46 -77.85 -33.56 -77.27 -48.65 -77.01 -63.75 -77.09 -78.85" fill="url(#uuunion-grad)"></path><path d="M-77.09 -78.85Q-77.01 -63.75 -77.27 -48.65 -77.85 -33.56 -78.68 -18.46 -79.65 -3.36 -80.67 11.72 -81.61 26.82 -82.36 41.92 -82.84 57.01 -82.99 72.11 -82.8 87.21 -82.29 102.31 -81.51 117.4 -80.55 132.5 -79.54 147.6 -78.57 162.69 -77.77 177.79 -77.23 192.89 -77 207.98 -77.12 223.08 -77.57 238.18 -78.3 253.27 -79.22 268.37 -80.24 283.47 -81.22 298.56 -82.07 313.66 -82.67 328.76 -82.97 343.85 -82.93 358.95 -82.54 374.05 -81.87 389.14 -80.98 404.24 -70.81 408.56 -60.65 412.62 -50.49 416.3 -40.32 419.47 -30.16 422.04 -20 423.94 -0.94 425.39 2.35 425.48 15.24 418.19 28.28 409.77 41.44 400.33 54.68 390.05 67.97 379.14 81.28 367.82 94.57 356.36 107.79 344.99 120.91 333.96 133.88 323.5 146.68 313.79 159.27 304.97 171.63 297.16 183.73 290.41 195.56 284.71 207.13 280.02 218.43 276.24 229.48 273.24 240.3 270.84 250.91 268.84 261.36 267.04 271.68 265.21 281.92 263.15 292.15 260.66 302.41 257.58 312.77 253.76 323.29 249.11 334.03 243.57 345.04 237.14 356.38 229.84 368.1 221.74 380.23 212.96 392.81 203.63 405.86 193.92 419.39 184 433.4 174.06 447.88 164.26 462.81 154.78 478.15 145.75 493.86 137.31 509.87 129.53 526.13 122.48 542.55 116.16 559.06 110.56 575.57 105.62 591.99 101.26 608.22 97.38 624.18 93.83 639.78 90.48 654.92 87.19 669.55 83.8 683.59 80.19 696.98 76.24 709.68 71.84 721.66 66.93 732.91 61.46 743.43 55.42 753.23 48.81 762.35 41.68 770.84 34.09 778.76 26.12 786.2 17.88 793.24 9.47 800 1.01 784.11 -16.55 770.71 -34.11 761.88 -51.68 759 -69.25 762.52 -86.82 771.89 -104.39 786.18 -130.16 771.77 -137.32 756.84 -136.45 741.9 -135.82 726.96 -135.48 712.03 -135.44 697.09 -135.72 682.15 -136.28 667.22 -137.1 652.28 -138.11 637.35 -139.25 622.41 -140.45 607.47 -141.61 592.54 -142.66 577.6 -143.53 562.66 -144.16 547.73 -144.51 532.79 -144.55 517.86 -144.28 502.92 -143.72 487.98 -142.9 473.05 -141.89 458.11 -140.75 443.17 -139.56 428.24 -138.4 413.3 -137.34 398.37 -136.47 383.43 -135.84 368.49 -135.48 353.56 -135.44 338.62 -135.71 323.68 -136.26 308.75 -137.07 293.81 -138.08 278.88 -139.22 263.94 -140.41 249 -141.58 234.07 -142.63 219.13 -143.51 204.19 -144.15 189.26 -144.5 174.32 -144.55 159.39 -144.29 144.45 -143.74 129.51 -142.93 114.58 -141.92 99.64 -140.78 84.71 -139.59 69.77 -138.43 54.83 -137.37 39.9 -136.49 24.96 -135.85 10.02 -135.49 -4.9 -135.44 -19.84 -135.69 -34.77 -136.24 -49.71 -137.05 -64.65 -138.05 -79.58 -139.19 -94.52 -140.38 -109.46 -141.55 -124.39 -142.61 -132.73 -130.38 -114.09 -112.65 -104.56 -104.39 -95.23 -95.98 -86.08 -87.46 -77.09 -78.85" fill="url(#uuunion-grad2)" filter="url(#uuunion-blur)"></path><path d="M813.43 402.59Q823.59 398.13 833.76 393.72 843.92 389.5 854.09 385.6 864.25 382.15 874.41 379.24 882.13 383.42 864.65 404.29 851.39 418.73 841.42 433.17 835.89 447.61 835.44 462.05 840.12 476.49 849.38 490.93 862.17 505.37 877.01 519.81 892.19 534.25 905.97 548.69 916.76 563.13 923.32 577.57 924.89 592.01 921.3 606.45 912.95 620.89 900.8 635.33 886.26 649.77 871.01 664.21 856.78 678.65 845.23 693.09 837.68 707.53 835 721.97 837.49 736.41 844.89 750.85 856.32 765.29 870.47 779.73 885.73 794.17 900.32 808.61 912.57 823.05 921.08 837.49 906.68 841.53 892.29 847.8 877.9 855.94 863.5 865.48 849.11 875.86 834.71 886.48 820.32 896.72 805.93 906 791.53 913.76 777.14 919.57 762.74 923.07 748.35 924.08 733.96 922.53 719.56 918.51 705.17 912.25 690.77 904.13 676.38 894.6 661.99 884.22 647.59 873.6 633.2 863.35 618.8 854.07 604.41 846.29 590.02 840.46 575.62 836.94 561.23 835.91 546.83 837.44 532.44 841.44 518.05 847.67 503.65 855.79 489.26 865.31 474.86 875.68 460.47 886.3 446.08 896.56 431.68 905.85 417.29 913.64 402.89 919.48 388.5 923.03 374.11 924.08 359.71 922.58 345.32 918.6 330.92 912.38 316.53 904.28 302.14 894.77 287.74 884.4 273.35 873.78 258.95 863.52 244.56 854.21 230.17 846.41 215.77 840.55 201.38 836.98 186.98 835.9 172.59 837.39 158.2 841.35 143.8 847.55 129.41 855.64 115.01 865.14 100.62 875.5 86.23 886.12 71.83 896.39 57.44 905.7 43.04 913.53 28.65 919.4 7 918.35 -0.39 903.31 -0.57 892.93 -0.77 882.54 -0.98 872.15 -1.2 861.76 -1.25 846.18 -0.61 841 11.32 833.53 23.16 824.18 34.94 813.11 46.69 800.59 58.45 786.92 70.25 772.47 82.14 757.65 94.16 742.86 106.33 728.52 118.69 715.01 131.27 702.66 144.08 691.75 157.14 682.48 170.45 674.98 184 669.29 197.8 665.34 211.81 663.03 226.01 662.12 240.37 662.35 254.84 663.4 269.38 664.91 283.93 666.49 298.45 667.78 312.87 668.41 327.14 668.07 341.19 666.5 354.98 663.47 368.45 658.87 381.57 652.62 394.28 644.76 406.57 635.39 418.42 624.68 429.8 612.85 440.74 600.19 451.23 587.02 461.3 573.68 470.99 560.51 480.34 547.83 489.41 535.95 498.27 525.12 506.99 515.55 515.64 507.37 524.31 500.66 533.1 495.41 542.08 491.56 551.35 488.96 560.99 487.43 571.07 486.71 581.67 486.54 592.86 486.61 604.68 486.62 617.16 486.26 630.35 485.27 644.24 483.41 658.83 480.47 674.11 476.32 690.03 470.88 706.54 464.13 723.57 456.13 741.06 446.97 758.89 436.81 776.97 425.87 795.19 414.38 813.43 402.59 813.43 402.59 813.43 402.59" fill="url(#uuunion-grad3)" filter="url(#uuunion-blur2)"></path></svg>